<svg width="48" height="48" viewBox="0 0 48 48" fill="none" xmlns="http://www.w3.org/2000/svg">
<path d="M43.3125 16.125C43.5591 16.125 43.8009 16.0247 43.9752 15.8502C44.1497 15.6759 44.25 15.4341 44.25 15.1875C44.25 14.9409 44.1497 14.6991 43.9752 14.5247C43.8009 14.3503 43.5591 14.25 43.3125 14.25C43.0659 14.25 42.8241 14.3502 42.6497 14.5247C42.4753 14.6992 42.375 14.9409 42.375 15.1875C42.375 15.4341 42.4752 15.6759 42.6497 15.8502C42.8241 16.0247 43.0659 16.125 43.3125 16.125Z" fill="black"/>
<path d="M18.4217 41.5938H18.4077C17.89 41.5938 17.4702 42.0136 17.4702 42.5312C17.4702 43.0489 17.89 43.4688 18.4077 43.4688H18.4217C18.9394 43.4688 19.3592 43.0489 19.3592 42.5312C19.3592 42.0136 18.9394 41.5938 18.4217 41.5938Z" fill="black"/>
<path d="M48 37.6492V6.5625C48 5.01169 46.7383 3.75 45.1875 3.75H41.9762V3.1875C41.9762 1.42988 40.5463 0 38.7887 0C37.0311 0 35.6012 1.42988 35.6012 3.1875V3.75H27.1756V3.1875C27.1756 1.42988 25.7457 0 23.9881 0C22.2305 0 20.8006 1.42988 20.8006 3.1875V3.75H12.375V3.1875C12.375 1.42988 10.9451 0 9.1875 0C7.42987 0 6 1.42988 6 3.1875V3.75H2.8125C1.26169 3.75 0 5.01169 0 6.5625V45.1875C0 46.7383 1.26169 48 2.8125 48H37.6492C37.9079 48 38.1422 47.8951 38.3118 47.7256C38.3119 47.7255 38.312 47.7255 38.3121 47.7254L47.7254 38.3121C47.895 38.1424 48 37.908 48 37.6492ZM37.4762 3.1875C37.4762 2.46375 38.0649 1.875 38.7887 1.875C39.5124 1.875 40.1012 2.46375 40.1012 3.1875V7.78125C40.1012 8.505 39.5124 9.09375 38.7887 9.09375C38.0649 9.09375 37.4762 8.505 37.4762 7.78125V3.1875ZM22.6756 3.1875C22.6756 2.46375 23.2643 1.875 23.9881 1.875C24.7118 1.875 25.3006 2.46375 25.3006 3.1875V7.78125C25.3006 8.505 24.7118 9.09375 23.9881 9.09375C23.2643 9.09375 22.6756 8.505 22.6756 7.78125V3.1875ZM7.875 3.1875C7.875 2.46375 8.46375 1.875 9.1875 1.875C9.91125 1.875 10.5 2.46375 10.5 3.1875V7.78125C10.5 8.505 9.91125 9.09375 9.1875 9.09375C8.46375 9.09375 7.875 8.505 7.875 7.78125V3.1875ZM1.875 45.1875V43.4688H14.6719C15.1896 43.4688 15.6094 43.049 15.6094 42.5313C15.6094 42.0136 15.1896 41.5938 14.6719 41.5938H1.875V16.125H39.5625C40.0802 16.125 40.5 15.7052 40.5 15.1875C40.5 14.6698 40.0802 14.25 39.5625 14.25H1.875V6.5625C1.875 6.04556 2.29556 5.625 2.8125 5.625H6V7.78125C6 9.53887 7.42987 10.9688 9.1875 10.9688C10.9451 10.9688 12.375 9.53887 12.375 7.78125V5.625H20.8006V7.78125C20.8006 9.53887 22.2305 10.9688 23.9881 10.9688C25.7457 10.9688 27.1756 9.53887 27.1756 7.78125V5.625H35.6012V7.78125C35.6012 9.53887 37.0311 10.9688 38.7887 10.9688C40.5463 10.9688 41.9762 9.53887 41.9762 7.78125V5.625H45.1875C45.7044 5.625 46.125 6.04556 46.125 6.5625V36.7117H39.5242C37.9733 36.7117 36.7117 37.9733 36.7117 39.5242V46.125H2.8125C2.29556 46.125 1.875 45.7044 1.875 45.1875ZM38.5867 44.7991V39.5241C38.5867 39.0071 39.0072 38.5866 39.5242 38.5866H44.7992L38.5867 44.7991Z" fill="black"/>
<path d="M10.2471 32.1287L13.4442 28.9575C13.8411 28.5778 14.1259 28.2326 14.2985 27.922C14.4797 27.6113 14.5703 27.2834 14.5703 26.9382C14.5703 26.5758 14.4581 26.2997 14.2338 26.1098C14.018 25.92 13.6599 25.8251 13.1594 25.8251H10.4671V24.3236C11.0194 24.2287 11.5285 24.1553 11.9945 24.1036C12.4691 24.0431 12.9825 24.0129 13.5348 24.0129C14.6048 24.0129 15.3642 24.233 15.8129 24.6731C16.2616 25.1045 16.486 25.756 16.486 26.6276C16.486 27.2489 16.3609 27.8055 16.1106 28.2973C15.869 28.7806 15.4807 29.2811 14.9457 29.7988L12.797 31.9346H16.7837V33.669H10.2471V32.1287Z" fill="black"/>
<path d="M21.4944 33.7208C20.6833 33.7208 20.062 33.5094 19.6305 33.0866C19.1991 32.6637 18.9833 32.0511 18.9833 31.2485V26.5888C18.9833 25.7604 19.2034 25.1261 19.6435 24.686C20.0922 24.2373 20.7135 24.0129 21.5074 24.0129H23.5007C24.2946 24.0129 24.8987 24.2373 25.3129 24.686C25.7271 25.1347 25.9342 25.769 25.9342 26.5888V31.2485C25.9342 32.0424 25.7184 32.6551 25.287 33.0866C24.8641 33.5094 24.2687 33.7208 23.5007 33.7208H21.4944ZM22.983 31.9993C23.6733 31.9993 24.0185 31.6541 24.0185 30.9638V26.77C24.0185 26.0796 23.6992 25.7345 23.0606 25.7345H21.8828C21.5635 25.7345 21.3175 25.8251 21.145 26.0063C20.981 26.1789 20.899 26.4334 20.899 26.77V30.9508C20.899 31.6498 21.2485 31.9993 21.9475 31.9993H22.983Z" fill="black"/>
<path d="M29.7845 25.838L28.0888 26.0581V24.8284L29.9916 24H31.7001V33.669H29.7845V25.838Z" fill="black"/>
<path d="M35.636 25.838L33.9403 26.0581V24.8284L35.8431 24H37.5517V33.669H35.636V25.838Z" fill="black"/>
</svg>
