<svg width="48" height="48" viewBox="0 0 48 48" fill="none" xmlns="http://www.w3.org/2000/svg">
<g clip-path="url(#clip0)">
<path d="M8.58019 5.27466H8.56884C6.83269 5.30006 5.42062 6.73388 5.42062 8.47088V13.0384H0.7065C0.316312 13.0384 0 13.3547 0 13.7449C0 14.1351 0.316312 14.4514 0.7065 14.4514H5.42072V18.1659H0.7065C0.316312 18.1659 0 18.4823 0 18.8724C0 19.2626 0.316312 19.5789 0.7065 19.5789H5.42072V23.2934H0.7065C0.316312 23.2935 0 23.6098 0 24C0 24.3902 0.316312 24.7065 0.7065 24.7065H5.42072V28.421H0.7065C0.316312 28.421 0 28.7373 0 29.1275C0 29.5177 0.316312 29.834 0.7065 29.834H5.42072V33.5485H0.7065C0.316312 33.5485 0 33.8648 0 34.255C0 34.6452 0.316312 34.9615 0.7065 34.9615H5.42072V37.3775C5.42072 37.7675 5.73722 38.084 6.12722 38.084C6.51722 38.084 6.83372 37.7675 6.83372 37.3775V8.47097C6.83372 7.5016 7.62122 6.70191 8.59059 6.68681C8.98059 6.68119 9.29241 6.36085 9.28584 5.96991C9.28013 5.58366 8.9655 5.27466 8.58019 5.27466Z" fill="black"/>
<path d="M38.4536 41.0204H8.61819C7.89003 41.0204 7.24194 40.5852 6.96594 39.9116C6.818 39.5499 6.40634 39.3775 6.04466 39.5253C5.68288 39.6733 5.51056 40.0859 5.65841 40.4466C6.152 41.6534 7.31356 42.4333 8.61819 42.4333H13.0388V47.2935C13.0388 47.6836 13.3551 48 13.7453 48C14.1355 48 14.4518 47.6836 14.4518 47.2935V42.4333H18.1663V47.2935C18.1663 47.6836 18.4827 48 18.8728 48C19.263 48 19.5793 47.6836 19.5793 47.2935V42.4333H23.2938V47.2935C23.2938 47.6836 23.6101 48 24.0003 48C24.3905 48 24.7068 47.6836 24.7068 47.2935V42.4333H28.4213V47.2935C28.4213 47.6836 28.7376 48 29.1278 48C29.518 48 29.8343 47.6836 29.8343 47.2935V42.4333H33.5488V47.2935C33.5488 47.6836 33.8652 48 34.2553 48C34.6455 48 34.9618 47.6836 34.9618 47.2935V42.4333H38.4536C38.8436 42.4333 39.1601 42.1168 39.1601 41.7268C39.1601 41.336 38.8436 41.0204 38.4536 41.0204Z" fill="black"/>
<path d="M33.5823 12.0129H14.4181C13.1728 12.0129 12.1602 13.0256 12.1602 14.2709V33.4361C12.1602 34.6815 13.1728 35.6941 14.4181 35.6941H33.5824C34.8278 35.6941 35.8404 34.6814 35.8404 33.4361V14.2709C35.8404 13.0255 34.8277 12.0129 33.5823 12.0129ZM13.5731 14.2709C13.5731 13.8046 13.9517 13.4259 14.418 13.4259H29.0323V20.8047C27.755 21.0807 26.7461 22.0897 26.4702 23.367H21.2637V19.744C22.5985 19.4831 23.6083 18.3046 23.6083 16.8944C23.6083 15.2939 22.3055 13.9912 20.7042 13.9912C19.294 13.9912 18.1156 15.0009 17.8545 16.3348H13.5731V14.2709ZM29.7389 22.1423C30.8034 22.1423 31.6692 23.009 31.6692 24.0735C31.6692 25.138 30.8035 26.0037 29.7389 26.0037C28.6668 26.0037 27.8078 25.1295 27.8078 24.0735C27.8079 23.0155 28.6693 22.1423 29.7389 22.1423ZM20.7042 18.3856C19.8871 18.3856 19.213 17.7211 19.213 16.8944C19.213 16.073 19.8818 15.4042 20.7042 15.4042C21.5265 15.4042 22.1953 16.073 22.1953 16.8944C22.1953 17.7239 21.52 18.3856 20.7042 18.3856ZM17.653 29.9328C17.2432 29.7029 16.9663 29.263 16.9663 28.7609C16.9663 28.0195 17.5701 27.4166 18.3115 27.4166C19.0528 27.4166 19.6558 28.0195 19.6558 28.7609C19.6557 29.7882 18.5445 30.4368 17.653 29.9328ZM23.367 34.2811H18.627V31.5003C19.9995 31.3439 21.0688 30.1748 21.0688 28.7609C21.0688 27.2405 19.8319 26.0036 18.3115 26.0036C16.7901 26.0036 15.5533 27.2405 15.5533 28.7609C15.5533 29.8913 16.2372 30.8663 17.214 31.2911V34.2811H14.4181C13.9518 34.2811 13.5732 33.9015 13.5732 33.4361V17.7478H17.928C17.934 17.7576 18.3137 19.1982 19.8507 19.6705V24.0735C19.8507 24.4635 20.1672 24.78 20.5572 24.78H23.367V34.2811ZM34.4274 33.4361C34.4274 33.9015 34.0487 34.2811 33.5824 34.2811H24.78V31.2258H34.4274V33.4361ZM34.4274 29.8128H24.78V24.78H26.4702C26.7952 26.2853 28.1375 27.4167 29.7389 27.4167C31.5824 27.4167 33.0822 25.917 33.0822 24.0735C33.0822 22.4721 31.9508 21.1298 30.4454 20.8047C30.4454 20.8047 30.4454 20.8047 30.4453 20.8047V13.4259H33.5823C34.0486 13.4259 34.4273 13.8046 34.4273 14.2709V29.8128H34.4274Z" fill="black"/>
<path d="M47.2934 19.579C47.6836 19.579 47.9999 19.2627 47.9999 18.8725C47.9999 18.4823 47.6836 18.166 47.2934 18.166H42.5792V14.4515H47.2934C47.6836 14.4515 47.9999 14.1352 47.9999 13.745C47.9999 13.3548 47.6836 13.0385 47.2934 13.0385H42.5792V8.47097C42.5792 6.70847 41.1455 5.27381 39.3821 5.27381H34.9615V0.7065C34.9615 0.316312 34.6451 0 34.255 0C33.8648 0 33.5485 0.316312 33.5485 0.7065V5.27372H29.8339V0.7065C29.8339 0.316312 29.5176 0 29.1274 0C28.7372 0 28.4209 0.316312 28.4209 0.7065V5.27372H24.7064V0.7065C24.7064 0.316312 24.3901 0 23.9999 0C23.6097 0 23.2934 0.316312 23.2934 0.7065V5.27372H19.579V0.7065C19.579 0.316312 19.2626 0 18.8725 0C18.4823 0 18.166 0.316312 18.166 0.7065V5.27372H14.4514V0.7065C14.4514 0.316312 14.1351 0 13.7449 0C13.3547 0 13.0384 0.316312 13.0384 0.7065V5.27372H11.4062C11.0153 5.27372 10.6997 5.59022 10.6997 5.98022C10.6997 6.37022 11.0153 6.68672 11.4062 6.68672C15.1072 6.68672 36.4201 6.68672 39.3821 6.68672C40.3664 6.68672 41.1662 7.48744 41.1662 8.47087V39.2361C41.1662 39.7287 40.9703 40.1875 40.6133 40.5276C40.3307 40.797 40.3194 41.2445 40.5888 41.5261C40.7282 41.6721 40.9138 41.7456 41.1003 41.7456C41.2755 41.7456 41.4507 41.6806 41.5883 41.5506C42.227 40.9411 42.5793 40.1187 42.5793 39.2361V34.9615H47.2935C47.6837 34.9615 48 34.6452 48 34.255C48 33.8648 47.6837 33.5485 47.2935 33.5485H42.5793V29.834H47.2935C47.6837 29.834 48 29.5177 48 29.1275C48 28.7373 47.6837 28.421 47.2935 28.421H42.5793V24.7065H47.2935C47.6837 24.7065 48 24.3902 48 24C48 23.6098 47.6837 23.2935 47.2935 23.2935H42.5793V19.579H47.2934Z" fill="black"/>
</g>
<defs>
<clipPath id="clip0">
<rect width="48" height="48" fill="white"/>
</clipPath>
</defs>
</svg>
