<svg width="48" height="48" viewBox="0 0 48 48" fill="none" xmlns="http://www.w3.org/2000/svg">
<g clip-path="url(#clip0)">
<path d="M16.2344 47.7656C16.5469 48.0777 17.0531 48.0777 17.3656 47.7656L21.3655 43.7656L20.2343 42.6344L16.8 46.0687L1.93142 31.2002L10.9657 22.1659L9.83444 21.0347L0.234567 30.6345C-0.077538 30.947 -0.077538 31.4533 0.234567 31.7658L16.2344 47.7656Z" fill="black"/>
<path d="M47.9948 16.7126L46.3948 2.31281C46.3534 1.94055 46.0597 1.64641 45.6874 1.6054L31.2876 0.00541841C31.0466 -0.0199719 30.8064 0.064402 30.6341 0.235103L25.0342 5.83503L26.1654 6.96626L31.4935 1.63821L44.8796 3.12452L46.3659 16.5068L43.2269 19.6462L41.7066 9.42131C42.798 8.98772 43.4183 7.83149 43.1757 6.68267C42.9336 5.53386 41.8988 4.72684 40.7254 4.77098C39.5524 4.81551 38.5817 5.69831 38.4266 6.86236C38.2715 8.02602 38.9774 9.13225 40.098 9.48225L41.3355 17.8021L30.1654 6.63502C29.8529 6.32252 29.3466 6.32252 29.0341 6.63502L25.0342 10.635L26.1654 11.7662L29.5997 8.33187L39.6684 18.4005L37.834 20.2348L38.9653 21.3661L41.3652 18.9661C41.4105 18.9145 41.4488 18.8571 41.4789 18.7958L41.8148 21.054L40.234 22.6348L41.3652 23.766L42.1074 23.0235L42.6156 26.4332C42.7363 27.4176 43.3867 28.2566 44.3097 28.6191C45.2331 28.9816 46.2804 28.8093 47.039 28.1703C47.7972 27.5312 48.1448 26.5285 47.9444 25.557L46.4722 18.6587L47.7651 17.3661C47.937 17.1943 48.0214 16.954 47.9948 16.7126V16.7126ZM40.7996 6.40065C41.2414 6.40065 41.5996 6.75884 41.5996 7.20064C41.5996 7.64243 41.2414 8.00062 40.7996 8.00062C40.3578 8.00062 39.9996 7.64243 39.9996 7.20064C39.9996 6.75884 40.3578 6.40065 40.7996 6.40065ZM46.378 25.882C46.4546 26.2785 46.3085 26.6855 45.9964 26.9426C45.6847 27.1996 45.257 27.2652 44.8824 27.1137C44.5078 26.9621 44.246 26.618 44.2003 26.2164L43.5195 21.6157L45.1285 20.0067L46.378 25.882Z" fill="black"/>
<path d="M5.83496 31.1149L11.0346 25.9153L12.1658 27.0465L6.96621 32.2461L5.83496 31.1149Z" fill="black"/>
<path d="M8.31348 33.5944L13.5131 28.3948L14.6447 29.526L9.44473 34.7256L8.31348 33.5944Z" fill="black"/>
<path d="M10.7939 36.074L13.8338 33.0342L14.9654 34.1654L11.9252 37.2053L10.7939 36.074Z" fill="black"/>
<path d="M13.2744 38.5547L15.435 36.3945L16.5662 37.5258L14.4061 39.6863L13.2744 38.5547Z" fill="black"/>
<path d="M15.7539 41.0344L17.3539 39.4348L18.4852 40.5661L16.8855 42.1657L15.7539 41.0344Z" fill="black"/>
<path d="M28.7996 44.0001C31.525 43.9989 34.1781 43.1224 36.3675 41.4994L42.137 47.2688C43.1123 48.2438 44.6932 48.2438 45.6682 47.2688C46.6431 46.2938 46.6431 44.7126 45.6682 43.7376L39.7651 37.8346L39.6628 37.9369C42.7256 32.9827 42.053 26.5847 38.0276 22.3754C34.0019 18.1657 27.6403 17.2087 22.5544 20.0473C17.4681 22.8859 14.9432 28.8031 16.4131 34.4393C17.8826 40.0752 22.9751 44.006 28.7996 44.0001ZM44.5369 44.8689C44.8873 45.2192 44.8873 45.7872 44.5369 46.1376C44.1865 46.488 43.6186 46.488 43.2682 46.1376L37.5995 40.4697C38.0351 40.0576 38.4409 39.6158 38.8147 39.1475L44.5369 44.8689ZM28.7996 20.0004C34.9851 20.0004 39.9995 25.0148 39.9995 31.2003C39.9995 37.3858 34.9851 42.4001 28.7996 42.4001C22.6142 42.4001 17.5998 37.3858 17.5998 31.2003C17.6064 25.0176 22.6169 20.0071 28.7996 20.0004Z" fill="black"/>
<path d="M28.7996 40.8003C34.1015 40.8003 38.3995 36.5023 38.3995 31.2005C38.3995 25.8986 34.1015 21.6006 28.7996 21.6006C23.4977 21.6006 19.1997 25.8986 19.1997 31.2005C19.2056 36.5 23.5 40.7945 28.7996 40.8003ZM28.7996 23.2006C33.2179 23.2006 36.7995 26.7822 36.7995 31.2005C36.7995 35.6187 33.2179 39.2003 28.7996 39.2003C24.3813 39.2003 20.7997 35.6187 20.7997 31.2005C20.8044 26.7841 24.3832 23.2053 28.7996 23.2006Z" fill="black"/>
<path d="M29.5996 34.4002H27.9996C27.5578 34.4002 27.1996 34.042 27.1996 33.6002H25.5996C25.5996 34.9255 26.6742 36.0001 27.9996 36.0001V37.6001H29.5996V36.0001C30.9249 36.0001 31.9995 34.9255 31.9995 33.6002V32.8002C31.9995 31.4748 30.9249 30.4002 29.5996 30.4002H27.9996C27.5578 30.4002 27.1996 30.042 27.1996 29.6002V28.8002C27.1996 28.3584 27.5578 28.0002 27.9996 28.0002H29.5996C30.0413 28.0002 30.3995 28.3584 30.3995 28.8002H31.9995C31.9995 27.4749 30.9249 26.4003 29.5996 26.4003V24.8003H27.9996V26.4003C26.6742 26.4003 25.5996 27.4749 25.5996 28.8002V29.6002C25.5996 30.9256 26.6742 32.0002 27.9996 32.0002H29.5996C30.0413 32.0002 30.3995 32.3584 30.3995 32.8002V33.6002C30.3995 34.042 30.0413 34.4002 29.5996 34.4002Z" fill="black"/>
<path d="M3.99995 19.2005H9.34402L14.735 23.0508C14.8705 23.1481 15.033 23.2004 15.1998 23.2004C15.3537 23.2 15.5045 23.1555 15.6342 23.0723C15.9111 22.8934 16.0498 22.5633 15.9838 22.2403L15.376 19.2005H19.9997C22.2079 19.1977 23.9969 17.4083 23.9997 15.2005V4.00068C23.9969 1.79251 22.2079 0.00346676 19.9997 0.000732422H3.99995C1.79177 0.00346676 0.00273434 1.79251 0 4.00068V15.2005C0.00273434 17.4083 1.79177 19.1977 3.99995 19.2005ZM1.59998 4.00068C1.59998 2.67531 2.67457 1.60071 3.99995 1.60071H19.9997C21.3251 1.60071 22.3997 2.67531 22.3997 4.00068V15.2005C22.3997 16.5259 21.3251 17.6005 19.9997 17.6005H14.3998C14.1596 17.6005 13.9318 17.7083 13.7799 17.8942C13.6279 18.0806 13.5678 18.3251 13.6158 18.5602L14.0158 20.577L10.0624 17.7532C9.92799 17.6552 9.76628 17.6017 9.59987 17.6005H3.99995C2.67457 17.6005 1.59998 16.5259 1.59998 15.2005V4.00068Z" fill="black"/>
<path d="M4.00018 16.0006H20.8V14.4006H4.80017V12.267L6.40015 10.1342L8.16029 12.4807C8.32083 12.6819 8.56419 12.7994 8.8216 12.8006C9.08137 12.7936 9.3216 12.6608 9.46574 12.4444L12.0712 8.53583L15.3848 12.5135C15.5375 12.6951 15.7625 12.8002 16 12.8006C16.025 12.8022 16.05 12.8022 16.0754 12.8006C16.3379 12.7756 16.5711 12.6233 16.6992 12.3924L20.6992 5.19251L19.3008 4.41674L15.8672 10.596L12.6153 6.69171C12.4555 6.49406 12.2106 6.38546 11.9567 6.4007C11.7052 6.41437 11.4743 6.54601 11.3345 6.75577L8.76184 10.6167L7.03999 8.32059C6.88257 8.12919 6.64781 8.01825 6.40015 8.01825C6.1525 8.01825 5.91774 8.12919 5.76032 8.32059L4.80017 9.60065V4.00073H3.2002V15.2006C3.2002 15.6424 3.55839 16.0006 4.00018 16.0006Z" fill="black"/>
</g>
<defs>
<clipPath id="clip0">
<rect width="48" height="48" fill="white"/>
</clipPath>
</defs>
</svg>
