<svg width="48" height="48" viewBox="0 0 48 48" fill="none" xmlns="http://www.w3.org/2000/svg">
<g clip-path="url(#clip0)">
<path d="M6.10645 2.93481C4.87964 2.93481 3.88135 3.93311 3.88135 5.15991C3.88135 6.38672 4.87964 7.38464 6.10645 7.38464C7.33325 7.38464 8.33118 6.38635 8.33118 5.15955C8.33118 3.93274 7.33325 2.93481 6.10645 2.93481ZM6.10645 5.96448C5.6626 5.96448 5.30151 5.60339 5.30151 5.15955C5.30151 4.71606 5.6626 4.35498 6.10645 4.35498C6.54993 4.35498 6.91101 4.71606 6.91101 5.15955C6.91101 5.60339 6.54993 5.96448 6.10645 5.96448Z" fill="black"/>
<path d="M12.0708 2.93481C10.844 2.93481 9.8457 3.93311 9.8457 5.15991C9.8457 6.38672 10.844 7.38464 12.0708 7.38464C13.2976 7.38464 14.2955 6.38672 14.2955 5.15991C14.2955 3.93311 13.2976 2.93481 12.0708 2.93481ZM12.0708 5.96448C11.627 5.96448 11.2659 5.60339 11.2659 5.15955C11.2659 4.71606 11.627 4.35498 12.0708 4.35498C12.5143 4.35498 12.8754 4.71606 12.8754 5.15955C12.8754 5.60339 12.5143 5.96448 12.0708 5.96448Z" fill="black"/>
<path d="M18.0353 2.93481C16.8085 2.93481 15.8105 3.93311 15.8105 5.15991C15.8105 6.38672 16.8085 7.38464 18.0353 7.38464C19.2621 7.38464 20.26 6.38672 20.26 5.15991C20.26 3.93311 19.2621 2.93481 18.0353 2.93481ZM18.0353 5.96448C17.5914 5.96448 17.2307 5.60339 17.2307 5.15955C17.2307 4.71606 17.5914 4.35498 18.0353 4.35498C18.4791 4.35498 18.8402 4.71606 18.8402 5.15955C18.8402 5.60339 18.4788 5.96448 18.0353 5.96448Z" fill="black"/>
<path d="M45.3966 0H2.60339C1.16785 0 0 1.16785 0 2.60339V33.9408C0 35.3763 1.16785 36.5442 2.60339 36.5442H7.18396C6.96643 36.8229 6.98547 37.2261 7.24182 37.4824L10.6534 40.894C10.3978 41.4185 10.1741 41.9586 9.98364 42.5087H5.15955C4.7677 42.5087 4.44983 42.8265 4.44983 43.2188V47.2899C4.44983 47.6821 4.7677 48 5.15955 48H19.1715C19.5637 48 19.8816 47.6821 19.8816 47.2899C19.8816 45.1234 21.6442 43.3608 23.8107 43.3608C25.9768 43.3608 27.7394 45.1234 27.7394 47.2899C27.7394 47.6821 28.0573 48 28.4495 48H42.4614C42.8536 48 43.1715 47.6821 43.1715 47.2899V43.2188C43.1715 42.8265 42.8536 42.5087 42.4614 42.5087H37.6373C37.4469 41.9586 37.2231 41.4185 36.9675 40.894L40.3795 37.4824C40.6355 37.2261 40.6545 36.8229 40.437 36.5442H45.3962C46.8318 36.5442 47.9996 35.3763 47.9996 33.9408V16.3748C47.9996 15.9825 47.6818 15.6647 47.2899 15.6647C46.8977 15.6647 46.5798 15.9825 46.5798 16.3748V33.9408C46.5798 34.5934 46.0488 35.124 45.3962 35.124H39.0253L34.8402 30.939V26.0826C34.8402 25.6904 34.522 25.3726 34.1301 25.3726H32.8521V20.9971L33.854 20.072C34.0554 19.886 34.132 19.6011 34.0507 19.3396L32.3467 13.8486C32.2544 13.5516 31.9794 13.3491 31.6685 13.3491H29.7748C29.4639 13.3491 29.1888 13.5516 29.0966 13.8486L27.3926 19.3396C27.3113 19.6011 27.3878 19.886 27.5892 20.072L28.5916 20.9971V25.3726H27.3135C26.9213 25.3726 26.6034 25.6904 26.6034 26.0826V27.9287H21.0176V26.8502L23.7444 24.1234C23.8777 23.9901 23.9524 23.8096 23.9524 23.6213V17.7986C23.9524 17.6089 23.8762 17.4269 23.7411 17.2936L19.9545 13.5538C19.7505 13.3524 19.4458 13.2935 19.1818 13.4037C18.9174 13.5143 18.7452 13.7725 18.7452 14.0588V20.3888L16.8992 21.5511L15.0531 20.3888V19.9841C15.0531 19.5919 14.7352 19.274 14.343 19.274C13.9508 19.274 13.6329 19.5919 13.6329 19.9841V20.7806C13.6329 21.0249 13.7582 21.2516 13.9647 21.3816L16.5209 22.9911C16.752 23.1368 17.0464 23.1368 17.2775 22.9911L19.8336 21.3816C20.0402 21.2516 20.1654 21.0249 20.1654 20.7806V15.7581L22.5322 18.0952V23.3269L19.8054 26.0537C19.6721 26.187 19.5974 26.3676 19.5974 26.5562V27.943C19.2733 28.0089 19.0294 28.2953 19.0294 28.6388V33.4629C18.479 33.653 17.9392 33.8771 17.4144 34.1323L14.2009 30.9188V26.5562C14.2009 26.3676 14.1262 26.187 13.9929 26.0537L11.2661 23.3269V18.0952L13.6329 15.7581V16.6586C13.6329 17.0508 13.9508 17.3687 14.343 17.3687C14.7352 17.3687 15.0531 17.0508 15.0531 16.6586V14.0592C15.0531 13.7725 14.881 13.5143 14.6166 13.4041C14.3525 13.2935 14.0479 13.3528 13.8439 13.5538L10.0569 17.2936C9.92175 17.4269 9.84595 17.6089 9.84595 17.7986V23.6213C9.84595 23.8096 9.92065 23.9901 10.054 24.1234L12.7808 26.8502V30.939L8.5957 35.124H2.60339C1.95081 35.124 1.42017 34.5934 1.42017 33.9408V10.3195H46.5798V13.0668C46.5798 13.4586 46.8977 13.7765 47.2899 13.7765C47.6821 13.7765 48 13.4586 48 13.0668V2.60339C48 1.16785 46.8322 0 45.3966 0V0ZM29.7832 20.1647L28.882 19.3326L30.2985 14.7693H31.1455L32.5616 19.3326L31.6604 20.1647C31.515 20.2991 31.4319 20.488 31.4319 20.6865V25.3729H30.0121V20.6865C30.0117 20.488 29.929 20.2991 29.7832 20.1647ZM33.42 26.7927V30.9192L30.2065 34.1327C29.6818 33.8774 29.142 33.6533 28.5916 33.4629V28.6392C28.5916 28.2957 28.3477 28.0093 28.0236 27.9434V26.7931H33.42V26.7927ZM17.6115 35.6261C18.3567 35.2291 19.1426 34.9032 19.9471 34.6575C20.2456 34.5663 20.4496 34.2905 20.4496 33.9781V29.3489H27.1714V33.9781C27.1714 34.2905 27.3757 34.5663 27.6742 34.6575C28.4788 34.9032 29.2646 35.2291 30.0099 35.6261C30.2856 35.7729 30.6248 35.7224 30.8459 35.5016L34.1202 32.2273L38.2288 36.3362C38.2291 36.3362 38.2291 36.3365 38.2295 36.3369L38.8733 36.9803L35.599 40.2546C35.3782 40.4755 35.3276 40.8149 35.4745 41.0907C35.8715 41.8356 36.1974 42.6215 36.4431 43.4264C36.5343 43.7249 36.8101 43.9288 37.1221 43.9288H41.7513V46.5798H34.5322C34.1653 40.9845 29.4972 36.5446 23.8107 36.5446C22.2902 36.5446 20.8206 36.8558 19.4421 37.4696C19.084 37.6293 18.9229 38.049 19.0825 38.4075C19.2418 38.7656 19.6622 38.9264 20.02 38.7671C21.2153 38.2346 22.4905 37.9647 23.8107 37.9647C28.7139 37.9647 32.7455 41.7682 33.1091 46.5798H29.1127C28.7644 43.9651 26.5195 41.941 23.8107 41.941C21.1018 41.941 18.8569 43.9651 18.5087 46.5798H14.5115C14.684 44.2482 15.7061 42.1058 17.4331 40.4861C17.7191 40.218 17.7338 39.7687 17.4653 39.4823C17.1973 39.1967 16.7479 39.182 16.4619 39.4501C14.4763 41.3119 13.2708 43.8787 13.0898 46.5798H5.86963V43.9288H10.4989C10.8113 43.9288 11.087 43.7249 11.1782 43.4264C11.424 42.6215 11.7499 41.8356 12.1469 41.0907C12.2937 40.8149 12.2432 40.4755 12.0223 40.2546L8.74805 36.9803L9.39185 36.3369C9.39185 36.3365 9.39221 36.3362 9.39258 36.3362L13.5011 32.2273L16.7754 35.5016C16.9962 35.7224 17.3357 35.7729 17.6115 35.6261ZM1.42017 8.89929V2.60339C1.42017 1.95081 1.95117 1.42017 2.60339 1.42017H45.3966C46.0492 1.42017 46.5798 1.95117 46.5798 2.60339V8.89929H1.42017Z" fill="black"/>
</g>
<defs>
<clipPath id="clip0">
<rect width="48" height="48" fill="white"/>
</clipPath>
</defs>
</svg>
