<svg width="48" height="48" viewBox="0 0 48 48" fill="none" xmlns="http://www.w3.org/2000/svg">
<path d="M7.5 42.75H6C5.80109 42.75 5.61032 42.829 5.46967 42.9697C5.32902 43.1103 5.25 43.3011 5.25 43.5C5.25 43.6989 5.32902 43.8897 5.46967 44.0303C5.61032 44.171 5.80109 44.25 6 44.25H7.5C7.69891 44.25 7.88968 44.171 8.03033 44.0303C8.17098 43.8897 8.25 43.6989 8.25 43.5C8.25 43.3011 8.17098 43.1103 8.03033 42.9697C7.88968 42.829 7.69891 42.75 7.5 42.75Z" fill="black"/>
<path d="M7.5 40.5H6C5.80109 40.5 5.61032 40.579 5.46967 40.7197C5.32902 40.8603 5.25 41.0511 5.25 41.25C5.25 41.4489 5.32902 41.6397 5.46967 41.7803C5.61032 41.921 5.80109 42 6 42H7.5C7.69891 42 7.88968 41.921 8.03033 41.7803C8.17098 41.6397 8.25 41.4489 8.25 41.25C8.25 41.0511 8.17098 40.8603 8.03033 40.7197C7.88968 40.579 7.69891 40.5 7.5 40.5Z" fill="black"/>
<path d="M21 42.75H19.5C19.3011 42.75 19.1103 42.829 18.9697 42.9697C18.829 43.1103 18.75 43.3011 18.75 43.5C18.75 43.6989 18.829 43.8897 18.9697 44.0303C19.1103 44.171 19.3011 44.25 19.5 44.25H21C21.1989 44.25 21.3897 44.171 21.5303 44.0303C21.671 43.8897 21.75 43.6989 21.75 43.5C21.75 43.3011 21.671 43.1103 21.5303 42.9697C21.3897 42.829 21.1989 42.75 21 42.75Z" fill="black"/>
<path d="M21 40.5H19.5C19.3011 40.5 19.1103 40.579 18.9697 40.7197C18.829 40.8603 18.75 41.0511 18.75 41.25C18.75 41.4489 18.829 41.6397 18.9697 41.7803C19.1103 41.921 19.3011 42 19.5 42H21C21.1989 42 21.3897 41.921 21.5303 41.7803C21.671 41.6397 21.75 41.4489 21.75 41.25C21.75 41.0511 21.671 40.8603 21.5303 40.7197C21.3897 40.579 21.1989 40.5 21 40.5Z" fill="black"/>
<path d="M34.5 42.75H33C32.8011 42.75 32.6103 42.829 32.4697 42.9697C32.329 43.1103 32.25 43.3011 32.25 43.5C32.25 43.6989 32.329 43.8897 32.4697 44.0303C32.6103 44.171 32.8011 44.25 33 44.25H34.5C34.6989 44.25 34.8897 44.171 35.0303 44.0303C35.171 43.8897 35.25 43.6989 35.25 43.5C35.25 43.3011 35.171 43.1103 35.0303 42.9697C34.8897 42.829 34.6989 42.75 34.5 42.75Z" fill="black"/>
<path d="M34.5 40.5H33C32.8011 40.5 32.6103 40.579 32.4697 40.7197C32.329 40.8603 32.25 41.0511 32.25 41.25C32.25 41.4489 32.329 41.6397 32.4697 41.7803C32.6103 41.921 32.8011 42 33 42H34.5C34.6989 42 34.8897 41.921 35.0303 41.7803C35.171 41.6397 35.25 41.4489 35.25 41.25C35.25 41.0511 35.171 40.8603 35.0303 40.7197C34.8897 40.579 34.6989 40.5 34.5 40.5Z" fill="black"/>
<path d="M44.25 30H38.25V15.75C38.25 15.5511 38.171 15.3603 38.0303 15.2197C37.8897 15.079 37.6989 15 37.5 15H31.5V2.25C31.5 2.05109 31.421 1.86032 31.2803 1.71967C31.1397 1.57902 30.9489 1.5 30.75 1.5H17.25C17.0511 1.5 16.8603 1.57902 16.7197 1.71967C16.579 1.86032 16.5 2.05109 16.5 2.25V15H10.5C10.3011 15 10.1103 15.079 9.96967 15.2197C9.82902 15.3603 9.75 15.5511 9.75 15.75V30H3.75C3.55109 30 3.36032 30.079 3.21967 30.2197C3.07902 30.3603 3 30.5511 3 30.75V45.75C3 45.9489 3.07902 46.1397 3.21967 46.2803C3.36032 46.421 3.55109 46.5 3.75 46.5H44.25C44.4489 46.5 44.6397 46.421 44.7803 46.2803C44.921 46.1397 45 45.9489 45 45.75V30.75C45 30.5511 44.921 30.3603 44.7803 30.2197C44.6397 30.079 44.4489 30 44.25 30ZM36.75 31.5H38.25V34.5H36.75V31.5ZM36.75 30H24.75V16.5H28.5V20.25C28.5 20.4489 28.579 20.6397 28.7197 20.7803C28.8603 20.921 29.0511 21 29.25 21H32.25C32.4489 21 32.6397 20.921 32.7803 20.7803C32.921 20.6397 33 20.4489 33 20.25V16.5H36.75V30ZM23.25 31.5H24.75V34.5H23.25V31.5ZM31.5 16.5V19.5H30V16.5H31.5ZM24.75 3V4.5H23.25V3H24.75ZM18 3H21.75V5.25C21.75 5.44891 21.829 5.63968 21.9697 5.78033C22.1103 5.92098 22.3011 6 22.5 6H25.5C25.6989 6 25.8897 5.92098 26.0303 5.78033C26.171 5.63968 26.25 5.44891 26.25 5.25V3H30V15H18V3ZM18 16.5V19.5H16.5V16.5H18ZM11.25 16.5H15V20.25C15 20.4489 15.079 20.6397 15.2197 20.7803C15.3603 20.921 15.5511 21 15.75 21H18.75C18.9489 21 19.1397 20.921 19.2803 20.7803C19.421 20.6397 19.5 20.4489 19.5 20.25V16.5H23.25V30H11.25V16.5ZM11.25 31.5V34.5H9.75V31.5H11.25ZM4.5 31.5H8.25V35.25C8.25 35.4489 8.32902 35.6397 8.46967 35.7803C8.61032 35.921 8.80109 36 9 36H12C12.1989 36 12.3897 35.921 12.5303 35.7803C12.671 35.6397 12.75 35.4489 12.75 35.25V31.5H16.5V45H4.5V31.5ZM18 31.5H21.75V35.25C21.75 35.4489 21.829 35.6397 21.9697 35.7803C22.1103 35.921 22.3011 36 22.5 36H25.5C25.6989 36 25.8897 35.921 26.0303 35.7803C26.171 35.6397 26.25 35.4489 26.25 35.25V31.5H30V45H18V31.5ZM43.5 45H31.5V31.5H35.25V35.25C35.25 35.4489 35.329 35.6397 35.4697 35.7803C35.6103 35.921 35.8011 36 36 36H39C39.1989 36 39.3897 35.921 39.5303 35.7803C39.671 35.6397 39.75 35.4489 39.75 35.25V31.5H43.5V45Z" fill="black"/>
<path d="M12.75 29.25H14.25C14.4489 29.25 14.6397 29.171 14.7803 29.0303C14.921 28.8897 15 28.6989 15 28.5C15 28.3011 14.921 28.1103 14.7803 27.9697C14.6397 27.829 14.4489 27.75 14.25 27.75H12.75C12.5511 27.75 12.3603 27.829 12.2197 27.9697C12.079 28.1103 12 28.3011 12 28.5C12 28.6989 12.079 28.8897 12.2197 29.0303C12.3603 29.171 12.5511 29.25 12.75 29.25Z" fill="black"/>
<path d="M12.75 27H14.25C14.4489 27 14.6397 26.921 14.7803 26.7803C14.921 26.6397 15 26.4489 15 26.25C15 26.0511 14.921 25.8603 14.7803 25.7197C14.6397 25.579 14.4489 25.5 14.25 25.5H12.75C12.5511 25.5 12.3603 25.579 12.2197 25.7197C12.079 25.8603 12 26.0511 12 26.25C12 26.4489 12.079 26.6397 12.2197 26.7803C12.3603 26.921 12.5511 27 12.75 27Z" fill="black"/>
<path d="M27.75 27.75H26.25C26.0511 27.75 25.8603 27.829 25.7197 27.9697C25.579 28.1103 25.5 28.3011 25.5 28.5C25.5 28.6989 25.579 28.8897 25.7197 29.0303C25.8603 29.171 26.0511 29.25 26.25 29.25H27.75C27.9489 29.25 28.1397 29.171 28.2803 29.0303C28.421 28.8897 28.5 28.6989 28.5 28.5C28.5 28.3011 28.421 28.1103 28.2803 27.9697C28.1397 27.829 27.9489 27.75 27.75 27.75Z" fill="black"/>
<path d="M27.75 25.5H26.25C26.0511 25.5 25.8603 25.579 25.7197 25.7197C25.579 25.8603 25.5 26.0511 25.5 26.25C25.5 26.4489 25.579 26.6397 25.7197 26.7803C25.8603 26.921 26.0511 27 26.25 27H27.75C27.9489 27 28.1397 26.921 28.2803 26.7803C28.421 26.6397 28.5 26.4489 28.5 26.25C28.5 26.0511 28.421 25.8603 28.2803 25.7197C28.1397 25.579 27.9489 25.5 27.75 25.5Z" fill="black"/>
<path d="M19.5 12H21C21.1989 12 21.3897 11.921 21.5303 11.7803C21.671 11.6397 21.75 11.4489 21.75 11.25C21.75 11.0511 21.671 10.8603 21.5303 10.7197C21.3897 10.579 21.1989 10.5 21 10.5H19.5C19.3011 10.5 19.1103 10.579 18.9697 10.7197C18.829 10.8603 18.75 11.0511 18.75 11.25C18.75 11.4489 18.829 11.6397 18.9697 11.7803C19.1103 11.921 19.3011 12 19.5 12Z" fill="black"/>
<path d="M19.5 14.25H21C21.1989 14.25 21.3897 14.171 21.5303 14.0303C21.671 13.8897 21.75 13.6989 21.75 13.5C21.75 13.3011 21.671 13.1103 21.5303 12.9697C21.3897 12.829 21.1989 12.75 21 12.75H19.5C19.3011 12.75 19.1103 12.829 18.9697 12.9697C18.829 13.1103 18.75 13.3011 18.75 13.5C18.75 13.6989 18.829 13.8897 18.9697 14.0303C19.1103 14.171 19.3011 14.25 19.5 14.25Z" fill="black"/>
</svg>
