<svg width="30" height="30" viewBox="0 0 30 30" fill="none" xmlns="http://www.w3.org/2000/svg">
<g clip-path="url(#clip0)">
<path d="M29.841 21.8997C29.8046 21.8214 29.7708 21.7564 29.7393 21.7044C29.2188 20.767 28.2242 19.6163 26.7559 18.2522L26.7249 18.2209L26.7094 18.2056L26.6937 18.1899H26.6779C26.0116 17.5547 25.5896 17.1276 25.4129 16.9089C25.0896 16.4924 25.0171 16.0707 25.1938 15.6435C25.3187 15.3207 25.7876 14.639 26.5996 13.5975C27.0267 13.0456 27.365 12.6032 27.6148 12.2699C29.4164 9.87478 30.1975 8.34424 29.9579 7.67773L29.8648 7.52197C29.8023 7.4282 29.6409 7.34242 29.3809 7.26418C29.1202 7.18611 28.7871 7.1732 28.3809 7.22523L23.8825 7.2563C23.8096 7.23048 23.7056 7.23289 23.57 7.26418C23.4346 7.29548 23.3669 7.31118 23.3669 7.31118L23.2886 7.35029L23.2265 7.39729C23.1744 7.42836 23.1171 7.48302 23.0546 7.56114C22.9924 7.63899 22.9403 7.73036 22.8987 7.83447C22.409 9.09447 21.8522 10.2659 21.2272 11.3489C20.8419 11.9946 20.4881 12.5542 20.1649 13.028C19.8422 13.5017 19.5714 13.8507 19.3529 14.0744C19.1341 14.2983 18.9366 14.4777 18.7592 14.6132C18.5821 14.7488 18.4469 14.8061 18.3533 14.7851C18.2595 14.7642 18.1711 14.7434 18.0875 14.7226C17.9418 14.6288 17.8246 14.5013 17.7363 14.3399C17.6475 14.1785 17.5878 13.9754 17.5565 13.7307C17.5255 13.4858 17.5071 13.2751 17.5018 13.0981C17.497 12.9212 17.4992 12.671 17.5098 12.3482C17.5206 12.0253 17.5255 11.8068 17.5255 11.6922C17.5255 11.2964 17.5332 10.8669 17.5487 10.4035C17.5644 9.94015 17.5772 9.573 17.5878 9.30252C17.5984 9.03177 17.6034 8.74531 17.6034 8.44332C17.6034 8.14133 17.585 7.90449 17.5487 7.7326C17.5128 7.56092 17.4577 7.39428 17.3851 7.23273C17.312 7.07133 17.2051 6.94649 17.0649 6.85786C16.9243 6.76934 16.7496 6.6991 16.5416 6.6469C15.9897 6.522 15.2868 6.45444 14.4328 6.44393C12.496 6.42314 11.2516 6.54821 10.6997 6.81896C10.481 6.93336 10.2831 7.08966 10.1062 7.28738C9.9187 7.51655 9.89255 7.64162 10.0279 7.66219C10.6528 7.7558 11.0952 7.97972 11.3555 8.33374L11.4493 8.52134C11.5223 8.65669 11.5952 8.89631 11.6681 9.23988C11.7409 9.58345 11.7879 9.96351 11.8086 10.3798C11.8606 11.1401 11.8606 11.791 11.8086 12.3324C11.7565 12.874 11.7072 13.2956 11.6602 13.5976C11.6133 13.8996 11.543 14.1443 11.4493 14.3317C11.3555 14.5191 11.2931 14.6337 11.2618 14.6753C11.2306 14.7168 11.2045 14.743 11.1838 14.7533C11.0485 14.8052 10.9077 14.8316 10.762 14.8316C10.6161 14.8316 10.4392 14.7586 10.231 14.6128C10.0228 14.4669 9.80677 14.2666 9.58285 14.0114C9.35892 13.7562 9.10639 13.3996 8.82513 12.9414C8.54409 12.4833 8.25249 11.9418 7.9505 11.3171L7.70065 10.864C7.54445 10.5725 7.33109 10.148 7.06033 9.59106C6.78942 9.03385 6.54995 8.49486 6.34179 7.97419C6.25858 7.75552 6.13357 7.58904 5.96698 7.47448L5.8888 7.42749C5.83683 7.38591 5.7534 7.34176 5.63894 7.29471C5.52433 7.24772 5.40474 7.21401 5.27967 7.19328L0.999858 7.22435C0.562516 7.22435 0.265775 7.32343 0.109527 7.52131L0.0469949 7.61492C0.0157561 7.66706 0 7.75033 0 7.86494C0 7.9795 0.0312387 8.1201 0.0937709 8.28658C0.718545 9.75496 1.39797 11.1711 2.13206 12.5352C2.86614 13.8993 3.50404 14.9981 4.04539 15.8307C4.58684 16.6639 5.13874 17.4502 5.70109 18.1893C6.26345 18.9287 6.63568 19.4025 6.81781 19.6107C7.00015 19.8193 7.14338 19.9752 7.24749 20.0793L7.63806 20.4541C7.88797 20.7041 8.25496 21.0034 8.73918 21.3522C9.22352 21.7012 9.75972 22.0447 10.3481 22.3834C10.9365 22.7216 11.6211 22.9976 12.4022 23.211C13.1831 23.4246 13.9432 23.5103 14.6826 23.469H16.4789C16.8433 23.4375 17.1193 23.323 17.3069 23.1252L17.369 23.047C17.4108 22.9848 17.4499 22.8882 17.486 22.7583C17.5226 22.6282 17.5407 22.4848 17.5407 22.3288C17.5301 21.8811 17.5641 21.4776 17.6421 21.1184C17.7199 20.7593 17.8086 20.4886 17.9079 20.3062C18.0071 20.124 18.119 19.9703 18.2436 19.8457C18.3684 19.7208 18.4574 19.6451 18.5096 19.6191C18.5614 19.5929 18.6028 19.5751 18.6341 19.5644C18.884 19.4811 19.1781 19.5618 19.5169 19.8067C19.8554 20.0514 20.1728 20.3536 20.4698 20.7127C20.7666 21.0721 21.1232 21.4754 21.5396 21.9231C21.9563 22.3709 22.3207 22.7038 22.633 22.9228L22.9452 23.1103C23.1538 23.2353 23.4246 23.3499 23.7578 23.454C24.0905 23.558 24.382 23.5841 24.6323 23.5321L28.6308 23.4697C29.0263 23.4697 29.334 23.4042 29.5523 23.2743C29.771 23.1441 29.901 23.0007 29.9429 22.8448C29.9847 22.6886 29.9869 22.5115 29.9508 22.3134C29.9138 22.1159 29.8773 21.9777 29.841 21.8997Z" fill="white"/>
</g>
<defs>
<clipPath id="clip0">
<rect width="30" height="30" fill="white"/>
</clipPath>
</defs>
</svg>
