<svg width="48" height="48" fill="none" xmlns="http://www.w3.org/2000/svg"><path d="M43.313 16.125a.94.94 0 00.662-.275.944.944 0 00.275-.662c0-.247-.1-.489-.275-.663a.944.944 0 00-.663-.275.94.94 0 00-.662.275.945.945 0 00-.275.662c0 .247.1.489.275.663a.944.944 0 00.663.275zM18.422 41.594h-.014a.938.938 0 000 1.875h.014a.938.938 0 000-1.875z" fill="#000"/><path d="M48 37.65V6.562a2.816 2.816 0 00-2.813-2.813h-3.21v-.563A3.191 3.191 0 0038.788 0 3.191 3.191 0 0035.6 3.188v.562h-8.425v-.563A3.191 3.191 0 0023.988 0a3.191 3.191 0 00-3.187 3.188v.562h-8.426v-.563A3.191 3.191 0 009.187 0 3.191 3.191 0 006 3.188v.562H2.812A2.816 2.816 0 000 6.563v38.624A2.816 2.816 0 002.813 48h34.836a.935.935 0 00.663-.274l9.413-9.414A.935.935 0 0048 37.65zM37.476 3.187a1.314 1.314 0 012.625 0V7.78c0 .724-.589 1.313-1.312 1.313a1.314 1.314 0 01-1.313-1.313V3.188zm-14.8 0a1.314 1.314 0 012.625 0V7.78a1.314 1.314 0 01-2.625 0V3.188zm-14.801 0a1.314 1.314 0 012.625 0V7.78a1.314 1.314 0 01-2.625 0V3.188zm-6 42v-1.72h12.797a.938.938 0 000-1.874H1.875V16.125h37.688a.938.938 0 000-1.875H1.874V6.562c0-.516.42-.937.938-.937H6v2.156a3.191 3.191 0 003.188 3.188 3.191 3.191 0 003.187-3.188V5.625h8.426v2.156a3.191 3.191 0 003.187 3.188 3.191 3.191 0 003.188-3.188V5.625H35.6v2.156a3.191 3.191 0 003.188 3.188 3.191 3.191 0 003.187-3.188V5.625h3.212c.516 0 .937.42.937.938v30.149h-6.6a2.816 2.816 0 00-2.813 2.812v6.601h-33.9a.939.939 0 01-.937-.938zm36.712-.389v-5.275c0-.517.42-.937.937-.937H44.8l-6.212 6.212z" fill="#000"/><path d="M10.247 32.129l3.197-3.171c.397-.38.682-.725.854-1.036.182-.31.272-.639.272-.984 0-.362-.112-.638-.336-.828-.216-.19-.574-.285-1.075-.285h-2.692v-1.501a26.018 26.018 0 011.527-.22c.475-.06.989-.091 1.54-.091 1.07 0 1.83.22 2.279.66.449.432.673 1.083.673 1.955 0 .62-.125 1.177-.375 1.67-.242.483-.63.983-1.165 1.5l-2.149 2.137h3.987v1.734h-6.537v-1.54zm11.247 1.591c-.81 0-1.432-.21-1.863-.633-.432-.423-.648-1.036-.648-1.839v-4.66c0-.828.22-1.462.66-1.902.45-.449 1.07-.673 1.864-.673h1.994c.794 0 1.398.224 1.812.673.414.449.621 1.083.621 1.903v4.66c0 .793-.216 1.406-.647 1.838-.423.422-1.018.634-1.786.634h-2.007zM22.983 32c.69 0 1.035-.346 1.035-1.036V26.77c0-.69-.319-1.035-.957-1.035h-1.178c-.32 0-.566.09-.738.271-.164.173-.246.427-.246.764v4.18c0 .7.35 1.05 1.049 1.05h1.035zm6.802-6.162l-1.696.22v-1.23L29.992 24H31.7v9.669h-1.915v-7.831zm5.851 0l-1.696.22v-1.23L35.843 24h1.709v9.669h-1.916v-7.831z" fill="#000"/></svg>