<svg width="48" height="48" fill="none" xmlns="http://www.w3.org/2000/svg"><g clip-path="url(#clip0)" fill="#000"><path d="M8.58 5.275h-.01A3.209 3.209 0 005.42 8.47v4.567H.706a.706.706 0 100 1.413h4.715v3.715H.706a.707.707 0 000 1.413h4.715v3.714H.706a.707.707 0 000 1.413h4.715v3.715H.706a.706.706 0 100 1.413h4.715v3.714H.706a.706.706 0 100 1.413h4.715v2.416a.707.707 0 001.413 0V8.471c0-.97.787-1.77 1.757-1.784a.705.705 0 00-.01-1.412zM38.454 41.02H8.618a1.779 1.779 0 01-1.652-1.108.706.706 0 10-1.308.535 3.186 3.186 0 002.96 1.986h4.42v4.86a.707.707 0 001.414 0v-4.86h3.714v4.86a.707.707 0 001.413 0v-4.86h3.715v4.86a.707.707 0 001.413 0v-4.86h3.714v4.86a.707.707 0 001.413 0v-4.86h3.715v4.86a.707.707 0 001.413 0v-4.86h3.492a.707.707 0 000-1.413zm-4.872-29.007H14.418a2.26 2.26 0 00-2.258 2.258v19.165a2.26 2.26 0 002.258 2.258h19.164a2.26 2.26 0 002.258-2.258V14.271a2.26 2.26 0 00-2.258-2.258zM13.573 14.27c0-.466.379-.845.845-.845h14.614v7.379a3.356 3.356 0 00-2.562 2.562h-5.206v-3.623a2.908 2.908 0 002.344-2.85c0-1.6-1.303-2.903-2.904-2.903a2.908 2.908 0 00-2.85 2.344h-4.28V14.27zm16.166 7.871c1.064 0 1.93.867 1.93 1.931 0 1.065-.866 1.93-1.93 1.93a1.933 1.933 0 01-1.931-1.93c0-1.058.861-1.93 1.93-1.93zm-9.035-3.756a1.493 1.493 0 01-1.491-1.492c0-.821.669-1.49 1.491-1.49a1.492 1.492 0 01.001 2.982zm-3.051 11.547a1.344 1.344 0 112.003-1.172c0 1.027-1.111 1.676-2.003 1.172zm5.714 4.348h-4.74V31.5a2.76 2.76 0 002.442-2.74 2.76 2.76 0 00-2.758-2.757 2.76 2.76 0 00-2.758 2.757c0 1.13.684 2.105 1.661 2.53v2.99h-2.796a.846.846 0 01-.845-.845V17.748h4.355c.006.01.386 1.45 1.923 1.922v4.403c0 .39.316.707.706.707h2.81v9.501zm11.06-.845a.846.846 0 01-.845.845H24.78v-3.055h9.647v2.21zm0-3.623H24.78V24.78h1.69a3.35 3.35 0 003.269 2.637c1.843 0 3.343-1.5 3.343-3.344a3.35 3.35 0 00-2.637-3.268v-7.38h3.137c.467 0 .845.38.845.846v15.542z"/><path d="M47.293 19.579a.706.706 0 100-1.413H42.58v-3.715h4.714a.706.706 0 100-1.412H42.58V8.47a3.2 3.2 0 00-3.197-3.197h-4.42V.707a.707.707 0 00-1.414 0v4.567h-3.714V.707a.706.706 0 10-1.413 0v4.567h-3.715V.707a.706.706 0 10-1.413 0v4.567H19.58V.707a.707.707 0 00-1.413 0v4.567h-3.715V.707a.706.706 0 10-1.413 0v4.567h-1.632a.706.706 0 100 1.413h27.976c.984 0 1.784.8 1.784 1.784v30.765c0 .493-.196.952-.553 1.292a.706.706 0 10.975 1.023c.639-.61.991-1.432.991-2.315v-4.274h4.715a.706.706 0 100-1.414H42.58v-3.714h4.715a.706.706 0 100-1.413H42.58v-3.715h4.715a.706.706 0 100-1.412H42.58v-3.715h4.714z"/></g><defs><clipPath id="clip0"><path fill="#fff" d="M0 0h48v48H0z"/></clipPath></defs></svg>