<svg width="48" height="48" fill="none" xmlns="http://www.w3.org/2000/svg"><g clip-path="url(#clip0)" fill="#000"><path d="M16.234 47.766a.8.8 0 001.132 0l4-4-1.132-1.132L16.8 46.07 1.931 31.2l9.035-9.034-1.132-1.131-9.6 9.6a.8.8 0 000 1.13l16 16zm31.761-31.053l-1.6-14.4a.8.8 0 00-.708-.708l-14.4-1.6a.809.809 0 00-.653.23l-5.6 5.6 1.131 1.131 5.329-5.328L44.88 3.125l1.486 13.382-3.14 3.14-1.52-10.226a2.41 2.41 0 10-1.608.061l1.238 8.32-11.17-11.167a.8.8 0 00-1.132 0l-4 4 1.131 1.131L29.6 8.332 39.668 18.4l-1.834 1.834 1.131 1.131 2.4-2.4a.779.779 0 00.114-.17l.336 2.258-1.581 1.58 1.131 1.132.742-.742.509 3.41a2.702 2.702 0 105.328-.877l-1.472-6.898 1.293-1.293a.8.8 0 00.23-.653zM40.8 6.4a.8.8 0 110 1.6.8.8 0 010-1.6zm5.578 19.481a1.103 1.103 0 11-2.178.334l-.68-4.6 1.608-1.61 1.25 5.876z"/><path d="M5.835 31.115l5.2-5.2 1.13 1.132-5.199 5.2-1.131-1.132zm2.478 2.479l5.2-5.2 1.132 1.132-5.2 5.2-1.132-1.132zm2.481 2.48l3.04-3.04 1.131 1.131-3.04 3.04-1.131-1.131zm2.48 2.481l2.161-2.16 1.131 1.13-2.16 2.161-1.132-1.131zm2.48 2.479l1.6-1.6 1.131 1.132-1.6 1.6-1.131-1.132zM28.8 44a12.718 12.718 0 007.567-2.5l5.77 5.769a2.497 2.497 0 003.531-3.531l-5.903-5.903-.102.102A12.787 12.787 0 1028.8 44zm15.737.869a.897.897 0 11-1.269 1.269L37.6 40.47c.436-.412.842-.854 1.216-1.322l5.722 5.72zM28.8 20C34.985 20 40 25.015 40 31.2c0 6.186-5.015 11.2-11.2 11.2-6.186 0-11.2-5.014-11.2-11.2.006-6.182 5.017-11.193 11.2-11.2z"/><path d="M28.8 40.8a9.6 9.6 0 100-19.2 9.6 9.6 0 00-9.6 9.6 9.61 9.61 0 009.6 9.6zm0-17.6a8 8 0 11-8 8 8.008 8.008 0 018-8z"/><path d="M29.6 34.4H28a.8.8 0 01-.8-.8h-1.6A2.4 2.4 0 0028 36v1.6h1.6V36a2.4 2.4 0 002.4-2.4v-.8a2.4 2.4 0 00-2.4-2.4H28a.8.8 0 01-.8-.8v-.8a.8.8 0 01.8-.8h1.6a.8.8 0 01.8.8H32a2.4 2.4 0 00-2.4-2.4v-1.6H28v1.6a2.4 2.4 0 00-2.4 2.4v.8A2.4 2.4 0 0028 32h1.6a.8.8 0 01.8.8v.8a.8.8 0 01-.8.8zM4 19.2h5.344l5.391 3.85a.797.797 0 00.9.022.8.8 0 00.349-.832l-.608-3.04H20a4.005 4.005 0 004-4V4a4.005 4.005 0 00-4-4H4a4.005 4.005 0 00-4 4v11.2a4.005 4.005 0 004 4zM1.6 4A2.4 2.4 0 014 1.6h16A2.4 2.4 0 0122.4 4v11.2a2.4 2.4 0 01-2.4 2.4h-5.6a.8.8 0 00-.784.96l.4 2.017-3.954-2.824a.795.795 0 00-.462-.152H4a2.4 2.4 0 01-2.4-2.4V4z"/><path d="M4 16h16.8v-1.6h-16v-2.133l1.6-2.133 1.76 2.347c.16.2.404.318.662.32a.8.8 0 00.644-.357l2.605-3.908 3.314 3.978A.805.805 0 0016 12.8h.075a.8.8 0 00.624-.409l4-7.2-1.398-.775-3.434 6.179-3.252-3.904a.786.786 0 00-.658-.291.8.8 0 00-.623.355l-2.572 3.86L7.04 8.322a.829.829 0 00-1.28 0L4.8 9.6V4H3.2v11.2a.8.8 0 00.8.8z"/></g><defs><clipPath id="clip0"><path fill="#fff" d="M0 0h48v48H0z"/></clipPath></defs></svg>