<svg width="48" height="48" fill="none" xmlns="http://www.w3.org/2000/svg"><g clip-path="url(#clip0)" fill="#000"><path d="M6.106 2.935A2.228 2.228 0 003.881 5.16c0 1.227.999 2.225 2.225 2.225A2.227 2.227 0 008.331 5.16a2.227 2.227 0 00-2.225-2.225zm0 3.03a.806.806 0 010-1.61.806.806 0 010 1.61zm5.964-3.03A2.228 2.228 0 009.847 5.16c0 1.227.998 2.225 2.225 2.225a2.227 2.227 0 002.225-2.225 2.227 2.227 0 00-2.225-2.225zm0 3.03a.806.806 0 010-1.61.806.806 0 010 1.61zm5.965-3.03A2.228 2.228 0 0015.81 5.16c0 1.227.998 2.225 2.225 2.225A2.227 2.227 0 0020.26 5.16a2.227 2.227 0 00-2.225-2.225zm0 3.03a.806.806 0 11.002-1.612.806.806 0 01-.002 1.611z"/><path d="M45.397 0H2.603A2.606 2.606 0 000 2.603v31.338a2.606 2.606 0 002.603 2.603h4.581a.71.71 0 00.058.938l3.411 3.412a14.57 14.57 0 00-.67 1.615H5.16a.71.71 0 00-.71.71v4.07a.71.71 0 00.71.711h14.012a.71.71 0 00.71-.71 3.934 3.934 0 013.929-3.93 3.933 3.933 0 013.928 3.93c0 .392.318.71.71.71h14.012a.71.71 0 00.71-.71v-4.071a.71.71 0 00-.71-.71h-4.824a14.46 14.46 0 00-.67-1.615l3.413-3.412a.71.71 0 00.057-.938h4.96A2.606 2.606 0 0048 33.941V16.375a.71.71 0 10-1.42 0V33.94c0 .652-.531 1.183-1.184 1.183h-6.37l-4.186-4.185v-4.856a.71.71 0 00-.71-.71h-1.278v-4.376l1.002-.925a.71.71 0 00.197-.732l-1.704-5.491a.71.71 0 00-.678-.5h-1.894a.71.71 0 00-.678.5l-1.704 5.49a.71.71 0 00.196.733l1.003.925v4.376h-1.278a.71.71 0 00-.71.71v1.846h-5.586V26.85l2.726-2.727a.71.71 0 00.208-.502V17.8a.71.71 0 00-.21-.505l-3.788-3.74a.71.71 0 00-1.209.505v6.33L16.9 21.55l-1.846-1.162v-.405a.71.71 0 10-1.42 0v.797a.71.71 0 00.332.6l2.556 1.61a.71.71 0 00.756 0l2.557-1.61a.71.71 0 00.331-.6v-5.023l2.367 2.337v5.232l-2.727 2.727a.71.71 0 00-.208.502v1.387a.71.71 0 00-.568.696v4.824c-.55.19-1.09.414-1.615.67l-3.213-3.214v-4.363a.71.71 0 00-.208-.502l-2.727-2.727v-5.232l2.367-2.337v.9a.71.71 0 101.42 0V14.06a.71.71 0 00-1.21-.505l-3.786 3.74a.71.71 0 00-.211.505v5.822a.71.71 0 00.208.502l2.727 2.727v4.089l-4.185 4.185H2.603c-.652 0-1.183-.53-1.183-1.183V10.319h45.16v2.748a.71.71 0 001.42 0V2.603A2.606 2.606 0 0045.397 0zM29.783 20.165l-.901-.832 1.416-4.564h.848l1.416 4.564-.902.832a.71.71 0 00-.228.521v4.687h-1.42v-4.687a.71.71 0 00-.229-.521zm3.637 6.628v4.126l-3.214 3.214a14.61 14.61 0 00-1.614-.67v-4.824a.71.71 0 00-.568-.696v-1.15h5.396zm-15.809 8.833a13.147 13.147 0 012.336-.968.71.71 0 00.503-.68v-4.63h6.721v4.63a.71.71 0 00.503.68c.805.245 1.59.571 2.336.968a.71.71 0 00.836-.124l3.274-3.275 4.109 4.11.644.643-3.274 3.275a.71.71 0 00-.124.836c.396.745.722 1.53.968 2.335a.71.71 0 00.68.503h4.628v2.65h-7.219c-.367-5.595-5.035-10.034-10.721-10.034-1.52 0-2.99.31-4.369.925a.71.71 0 00.578 1.297 9.254 9.254 0 013.79-.802c4.904 0 8.936 3.803 9.3 8.615h-3.997a5.357 5.357 0 00-5.302-4.639 5.357 5.357 0 00-5.302 4.639H14.51a9.225 9.225 0 012.922-6.094.71.71 0 00-.971-1.036 10.792 10.792 0 00-3.372 7.13H5.87v-2.651h4.629a.71.71 0 00.68-.503c.245-.805.57-1.59.968-2.335a.71.71 0 00-.125-.836L8.748 36.98l.644-.643 4.11-4.11 3.273 3.275c.221.22.56.27.837.124zM1.421 8.9V2.603c0-.652.53-1.183 1.182-1.183h42.794c.652 0 1.183.531 1.183 1.183V8.9H1.42z"/></g><defs><clipPath id="clip0"><path fill="#fff" d="M0 0h48v48H0z"/></clipPath></defs></svg>