<svg width="48" height="48" fill="none" xmlns="http://www.w3.org/2000/svg"><path d="M7.5 42.75H6a.75.75 0 100 1.5h1.5a.75.75 0 100-1.5zm0-2.25H6A.75.75 0 106 42h1.5a.75.75 0 100-1.5zM21 42.75h-1.5a.75.75 0 100 1.5H21a.75.75 0 100-1.5zm0-2.25h-1.5a.75.75 0 100 1.5H21a.75.75 0 100-1.5zm13.5 2.25H33a.75.75 0 100 1.5h1.5a.75.75 0 100-1.5zm0-2.25H33a.75.75 0 100 1.5h1.5a.75.75 0 100-1.5z" fill="#000"/><path d="M44.25 30h-6V15.75a.75.75 0 00-.75-.75h-6V2.25a.75.75 0 00-.75-.75h-13.5a.75.75 0 00-.75.75V15h-6a.75.75 0 00-.75.75V30h-6a.75.75 0 00-.75.75v15a.75.75 0 00.75.75h40.5a.75.75 0 00.75-.75v-15a.75.75 0 00-.75-.75zm-7.5 1.5h1.5v3h-1.5v-3zm0-1.5h-12V16.5h3.75v3.75a.75.75 0 00.75.75h3a.75.75 0 00.75-.75V16.5h3.75V30zm-13.5 1.5h1.5v3h-1.5v-3zm8.25-15v3H30v-3h1.5zM24.75 3v1.5h-1.5V3h1.5zM18 3h3.75v2.25a.75.75 0 00.75.75h3a.75.75 0 00.75-.75V3H30v12H18V3zm0 13.5v3h-1.5v-3H18zm-6.75 0H15v3.75a.75.75 0 00.75.75h3a.75.75 0 00.75-.75V16.5h3.75V30h-12V16.5zm0 15v3h-1.5v-3h1.5zm-6.75 0h3.75v3.75A.75.75 0 009 36h3a.75.75 0 00.75-.75V31.5h3.75V45h-12V31.5zm13.5 0h3.75v3.75a.75.75 0 00.75.75h3a.75.75 0 00.75-.75V31.5H30V45H18V31.5zM43.5 45h-12V31.5h3.75v3.75A.75.75 0 0036 36h3a.75.75 0 00.75-.75V31.5h3.75V45z" fill="#000"/><path d="M12.75 29.25h1.5a.75.75 0 100-1.5h-1.5a.75.75 0 100 1.5zm0-2.25h1.5a.75.75 0 100-1.5h-1.5a.75.75 0 100 1.5zm15 .75h-1.5a.75.75 0 100 1.5h1.5a.75.75 0 100-1.5zm0-2.25h-1.5a.75.75 0 100 1.5h1.5a.75.75 0 100-1.5zM19.5 12H21a.75.75 0 100-1.5h-1.5a.75.75 0 100 1.5zm0 2.25H21a.75.75 0 100-1.5h-1.5a.75.75 0 100 1.5z" fill="#000"/></svg>