<svg width="48" height="48" fill="none" xmlns="http://www.w3.org/2000/svg"><path d="M42.349 22.243c-1.634-.816-4.696-.826-4.826-.826a.703.703 0 000 1.406c.79 0 3.085.122 4.197.678a.7.7 0 00.943-.314.703.703 0 00-.314-.944z" fill="#000"/><path d="M45.854 32.254l-2.904-.83a.295.295 0 01-.213-.282v-.97a5.172 5.172 0 002.255-4.293v-1.337l.282-.562a4.486 4.486 0 00.47-1.995V18.36a.703.703 0 00-.703-.703h-6.766a4.467 4.467 0 00-4.462 4.462v.042c0 .573.136 1.147.392 1.66l.36.72v1.148c0 1.82.897 3.453 2.255 4.436v1.016c0 .157 0 .221-.58.387l-1.417.405-4.099-1.49a.702.702 0 00-.191-.539l-1.31-1.376v-2.31a8.253 8.253 0 003.007-6.354V18.02a8.126 8.126 0 00.752-3.418V7.084a.703.703 0 00-.703-.703H21.753a6.725 6.725 0 00-6.717 6.718v1.503c0 1.184.253 2.333.752 3.418v1.588a8.591 8.591 0 003.007 6.557v2.364l-1.31 1.377a.702.702 0 00-.191.538l-4.327 1.573a3.683 3.683 0 00-.869.455l-.68-.34c2.023-.88 2.664-2.118 2.695-2.18a.703.703 0 000-.628c-.507-1.014-.569-2.872-.618-4.365a38.069 38.069 0 00-.062-1.385c-.24-3.372-2.803-5.916-5.964-5.916-3.16 0-5.724 2.543-5.964 5.916-.03.418-.045.888-.061 1.385-.05 1.493-.111 3.351-.618 4.365a.703.703 0 000 .629c.03.061.67 1.297 2.696 2.178l-1.887.943A2.943 2.943 0 000 35.721v5.194a.703.703 0 001.406 0v-5.194c0-.592.329-1.124.858-1.389l2.35-1.174.817.776a2.95 2.95 0 002.038.815 2.95 2.95 0 002.038-.815l.818-.776.766.383a3.703 3.703 0 00-.566 1.963v5.412a.703.703 0 001.406 0v-5.412c0-.965.61-1.836 1.517-2.165l4.561-1.659 1.899 2.848a1.45 1.45 0 001.212.648c.384 0 .752-.151 1.027-.426l1.159-1.158v7.324a.703.703 0 001.406 0v-7.324l1.158 1.158a1.449 1.449 0 001.172.42 1.45 1.45 0 001.068-.642l1.899-2.848 4.56 1.659a2.31 2.31 0 011.517 2.165v5.412a.703.703 0 001.407 0v-5.412a3.72 3.72 0 00-1.04-2.573l.173-.05c.175-.05.415-.118.655-.235l1.795 1.795v6.475a.703.703 0 001.406 0V34.44l1.783-1.783c.094.048.194.089.299.119l2.904.83a1.56 1.56 0 011.126 1.492v5.817a.703.703 0 001.406 0v-5.817a2.971 2.971 0 00-2.146-2.845zM4.511 31.012c-1.315-.473-1.975-1.104-2.257-1.449.192-.502.317-1.076.401-1.683a5.244 5.244 0 001.856 2.29v.842zm4.028 1.903c-.6.57-1.54.57-2.139 0l-.654-.621a1.46 1.46 0 00.171-.687v-.75a5.231 5.231 0 003.105 0v.75c0 .245.06.48.17.687l-.653.621zm-1.07-3.228a3.812 3.812 0 01-3.807-3.807.703.703 0 00-.819-.693l.007-.181c.015-.484.03-.94.058-1.332.09-1.263.595-2.428 1.422-3.278a4.346 4.346 0 013.14-1.331c1.19 0 2.305.472 3.14 1.33.826.851 1.33 2.016 1.42 3.279.029.392.044.848.06 1.332l.004.125c-.765-1.179-1.947-2.047-3.473-2.538a8.826 8.826 0 00-2.675-.424.703.703 0 00-.486.215L4.19 23.7a.703.703 0 101.013.976l1.055-1.095c.91.045 3.834.385 4.971 2.89a3.798 3.798 0 01-3.76 3.216zm2.959 1.327v-.838a5.201 5.201 0 001.856-2.292c.084.605.209 1.179.4 1.68-.28.34-.942.977-2.256 1.45zm6.766-11.406v-1.745a.704.704 0 00-.07-.306 6.745 6.745 0 01-.682-2.954v-1.504a5.317 5.317 0 015.311-5.311h9.823v6.815a6.75 6.75 0 01-.682 2.954.704.704 0 00-.07.306v2.002a6.75 6.75 0 01-2.156 4.973 7.033 7.033 0 01-.54.457l-.012.01a6.76 6.76 0 01-4.562 1.36c-3.566-.23-6.36-3.33-6.36-7.057zm3.959 14.147c-.005.005-.016.017-.04.014a.045.045 0 01-.035-.021l-2.187-3.28.704-.74 3.317 2.268-1.759 1.76zm2.856-2.713L20.2 28.439v-1.312a7.916 7.916 0 003.815.96 8.144 8.144 0 003.8-.932v1.284l-3.807 2.603zm2.93 2.706a.045.045 0 01-.035.022c-.023.002-.034-.01-.04-.014l-1.759-1.76 3.318-2.267.704.739-2.187 3.28zm12.84-.593l-1.596-1.596a1.92 1.92 0 00.044-.417v-.297a4.925 4.925 0 001.554.248c.534 0 1.054-.08 1.55-.234v.283c0 .14.018.278.051.41l-1.603 1.603zm2.651-4.543a3.779 3.779 0 01-2.769 1.073c-2.034-.06-3.69-1.853-3.69-3.995v-1.314a.703.703 0 00-.074-.315l-.434-.868a2.316 2.316 0 01-.244-1.03v-.043a3.06 3.06 0 013.056-3.055h6.063v2.92c0 .472-.111.944-.322 1.367l-.355.71a.702.702 0 00-.074.314v1.503c0 1.04-.411 2.01-1.157 2.733z" fill="#000"/><path d="M44.29 35.701a.703.703 0 00-.703.703v4.511a.703.703 0 001.406 0v-4.51a.703.703 0 00-.703-.704zm-40.58.929a.703.703 0 00-.703.704v3.581a.703.703 0 001.407 0v-3.581a.703.703 0 00-.704-.703zm26.058-21.773c-2.659-2.66-8.223-2.15-10.492-1.809a1.443 1.443 0 00-1.233 1.438v1.62a.703.703 0 001.406 0v-1.62c0-.024.016-.044.037-.047.906-.137 2.705-.348 4.568-.223 2.193.145 3.78.696 4.72 1.635a.703.703 0 10.994-.994zM15.74 37.205a.703.703 0 00-.704.703v3.007a.703.703 0 001.406 0v-3.007a.703.703 0 00-.703-.703zm16.538 0a.703.703 0 00-.703.703v3.007a.703.703 0 001.406 0v-3.007a.703.703 0 00-.703-.703z" fill="#000"/></svg>