<svg width="30" height="30" fill="none" xmlns="http://www.w3.org/2000/svg"><g clip-path="url(#clip0)"><path d="M29.841 21.9a2.067 2.067 0 00-.102-.195c-.52-.938-1.515-2.088-2.983-3.453l-.031-.03-.016-.016-.015-.016h-.016c-.666-.635-1.088-1.062-1.265-1.28-.323-.418-.396-.84-.22-1.266.126-.323.595-1.005 1.407-2.046.427-.552.765-.995 1.015-1.328 1.801-2.395 2.583-3.926 2.343-4.592l-.093-.156c-.063-.094-.224-.18-.484-.258-.26-.078-.594-.09-1-.039l-4.498.031a.597.597 0 00-.313.008l-.203.047-.078.04-.063.046a.693.693 0 00-.171.164c-.063.078-.115.17-.156.274a25.491 25.491 0 01-1.672 3.514 33.65 33.65 0 01-1.062 1.68c-.323.473-.594.822-.812 1.046a5.66 5.66 0 01-.594.538c-.177.136-.312.193-.406.172a12.157 12.157 0 01-.266-.062 1.038 1.038 0 01-.35-.383 1.714 1.714 0 01-.18-.61 6.755 6.755 0 01-.055-.632 12.71 12.71 0 01.008-.75c.01-.323.015-.541.015-.656 0-.395.008-.825.024-1.288.015-.464.028-.83.039-1.101.01-.271.015-.558.015-.86 0-.301-.018-.538-.054-.71a2.432 2.432 0 00-.164-.5.843.843 0 00-.32-.375 1.806 1.806 0 00-.523-.21c-.552-.126-1.255-.193-2.11-.204-1.936-.02-3.18.104-3.732.375-.219.115-.417.27-.594.469-.187.229-.213.354-.078.374.625.094 1.067.318 1.327.672l.094.188c.073.135.146.374.22.718.072.344.119.724.14 1.14.052.76.052 1.411 0 1.952-.052.542-.102.964-.149 1.266a2.53 2.53 0 01-.21.734 3.085 3.085 0 01-.188.343.268.268 0 01-.078.079 1.17 1.17 0 01-.422.078c-.146 0-.323-.073-.531-.219a3.747 3.747 0 01-.648-.601 8.04 8.04 0 01-.758-1.07c-.28-.459-.573-1-.874-1.625l-.25-.453c-.157-.291-.37-.716-.64-1.273a24.332 24.332 0 01-.72-1.617 1.03 1.03 0 00-.374-.5l-.078-.046a1.069 1.069 0 00-.25-.133 1.658 1.658 0 00-.36-.102L1 7.225c-.436 0-.733.099-.89.296l-.062.094a.505.505 0 00-.047.25c0 .115.031.255.094.422a51.544 51.544 0 002.038 4.248c.734 1.364 1.372 2.463 1.913 3.296a39 39 0 001.656 2.358c.562.74.935 1.214 1.117 1.422.182.208.325.364.43.468l.39.375c.25.25.617.55 1.101.898.485.35 1.02.693 1.61 1.032a8.728 8.728 0 002.053.827c.781.214 1.541.3 2.28.258h1.797c.364-.031.64-.146.828-.344l.062-.078c.042-.062.08-.159.117-.288.037-.13.055-.274.055-.43-.01-.448.023-.851.101-1.21.078-.36.167-.63.266-.813a2.017 2.017 0 01.602-.687.896.896 0 01.124-.054c.25-.084.544-.003.883.242.338.245.656.547.953.906.297.36.653.763 1.07 1.21.416.448.78.781 1.093 1l.312.187c.209.125.48.24.813.344.332.104.624.13.874.078l3.999-.062c.395 0 .703-.066.921-.195.219-.13.349-.274.39-.43a1.21 1.21 0 00.009-.531 1.963 1.963 0 00-.11-.414z" fill="#4496FD"/></g><defs><clipPath id="clip0"><path fill="#fff" d="M0 0h30v30H0z"/></clipPath></defs></svg>