<svg width="118" height="22" fill="none" xmlns="http://www.w3.org/2000/svg"><path d="M7.22 17.304L2.376 3.076h-.091c.13 2.113.194 4.094.194 5.943v8.285H0V.268h3.85L8.488 13.82h.069L13.332.268h3.861v17.036h-2.627V8.879c0-.847.019-1.95.057-3.31.046-1.359.084-2.182.114-2.47h-.091L9.63 17.305H7.22zm32.71-8.541c0 2.773-.682 4.929-2.045 6.467-1.356 1.538-3.279 2.307-5.77 2.307-2.52 0-4.459-.761-5.814-2.284-1.348-1.53-2.022-3.701-2.022-6.514 0-2.812.677-4.971 2.033-6.478C27.675.754 29.617 0 32.138 0c2.483 0 4.403.765 5.758 2.296 1.356 1.53 2.034 3.686 2.034 6.467zm-12.75 0c0 2.097.415 3.69 1.246 4.777.83 1.08 2.06 1.62 3.69 1.62 1.622 0 2.844-.536 3.667-1.608.83-1.072 1.245-2.668 1.245-4.79 0-2.089-.411-3.674-1.234-4.754-.815-1.08-2.033-1.62-3.656-1.62-1.637 0-2.875.54-3.712 1.62-.83 1.08-1.246 2.665-1.246 4.755zm17.779 6.152h1.29c1.105-2.058 2.03-4.37 2.777-6.933A39.045 39.045 0 0050.465.268h8.625v14.647h2.16V22h-2.628v-4.696H47.586V22H44.96v-7.085zm7.79-12.235c-.167 1.764-.593 3.81-1.279 6.141-.685 2.323-1.466 4.354-2.342 6.094h7.232V2.68h-3.61zM80.17.268l-5.267 12.119c-.647 1.483-1.24 2.56-1.782 3.227-.54.66-1.169 1.146-1.885 1.457-.708.31-1.569.466-2.582.466a8.28 8.28 0 01-2.456-.35v-2.505a6.168 6.168 0 002.342.455c.693 0 1.272-.171 1.737-.513.472-.35.898-.975 1.28-1.876L65.398.268h2.947l4.078 8.541c.366.808.59 1.348.674 1.62h.115c.046-.202.16-.524.343-.967L77.313.268h2.856zm18.258 17.036h-2.73V2.657h-4.753c-.601 4.972-1.085 8.355-1.45 10.15-.359 1.794-.865 3.044-1.52 3.751-.655.7-1.523 1.037-2.605 1.014a4.368 4.368 0 01-1.588-.291v-2.32c.434.195.857.292 1.269.292.548 0 .974-.334 1.279-1.002.312-.676.651-2.163 1.017-4.463.373-2.3.815-5.473 1.325-9.52h9.756v17.036zM118 12.177c0 1.67-.552 2.944-1.657 3.822-1.096.87-2.688 1.305-4.775 1.305h-5.209V.268h2.73V7.19h2.365c2.117 0 3.736.43 4.855 1.293 1.127.855 1.691 2.086 1.691 3.694zm-8.911 2.785h2.296c1.227 0 2.167-.218 2.822-.653.663-.442.994-1.153.994-2.132 0-.917-.316-1.589-.948-2.016-.632-.427-1.691-.64-3.176-.64h-1.988v5.44z" fill="#fff"/></svg>