<svg width="30" height="30" fill="none" xmlns="http://www.w3.org/2000/svg"><g clip-path="url(#clip0)"><path d="M29.841 21.9a2.057 2.057 0 00-.102-.196c-.52-.937-1.515-2.088-2.983-3.452l-.031-.031-.016-.015-.015-.016h-.016c-.666-.635-1.088-1.062-1.265-1.281-.323-.417-.396-.838-.22-1.265.126-.323.595-1.005 1.407-2.046.427-.552.765-.995 1.015-1.328 1.801-2.395 2.583-3.926 2.343-4.592l-.093-.156c-.063-.094-.224-.18-.484-.258-.26-.078-.594-.09-1-.039l-4.498.031c-.073-.026-.177-.023-.313.008l-.203.047-.078.04-.063.046a.693.693 0 00-.171.164c-.063.078-.115.17-.156.273a25.498 25.498 0 01-1.672 3.515 33.124 33.124 0 01-1.062 1.679c-.323.474-.594.823-.812 1.046a5.66 5.66 0 01-.594.54c-.177.135-.312.192-.406.171a11.1 11.1 0 01-.266-.062 1.038 1.038 0 01-.35-.383 1.714 1.714 0 01-.18-.61 6.76 6.76 0 01-.055-.632 12.71 12.71 0 01.008-.75c.01-.323.015-.541.015-.656 0-.396.008-.825.024-1.289.015-.463.028-.83.039-1.1.01-.271.015-.558.015-.86a3.63 3.63 0 00-.054-.71 2.432 2.432 0 00-.164-.5.843.843 0 00-.32-.375 1.806 1.806 0 00-.523-.211c-.552-.125-1.255-.193-2.11-.203-1.936-.02-3.18.104-3.732.375a2.09 2.09 0 00-.594.468c-.187.23-.213.355-.078.375.625.094 1.067.318 1.327.672l.094.187c.073.136.146.375.22.719.072.343.119.724.14 1.14.052.76.052 1.411 0 1.952-.052.542-.102.964-.149 1.266a2.53 2.53 0 01-.21.734 3.101 3.101 0 01-.188.343.269.269 0 01-.078.078 1.17 1.17 0 01-.422.079c-.146 0-.323-.073-.531-.22a3.747 3.747 0 01-.648-.6 8.033 8.033 0 01-.758-1.07c-.28-.459-.573-1-.874-1.625l-.25-.453c-.157-.292-.37-.716-.64-1.273a24.332 24.332 0 01-.72-1.617 1.03 1.03 0 00-.374-.5l-.078-.047a1.069 1.069 0 00-.25-.132 1.658 1.658 0 00-.36-.102L1 7.224c-.436 0-.733.1-.89.297l-.062.094a.505.505 0 00-.047.25c0 .114.031.255.094.422a51.545 51.545 0 002.038 4.248c.734 1.364 1.372 2.463 1.913 3.296a39 39 0 001.656 2.358c.562.74.935 1.213 1.117 1.422.182.208.325.364.43.468l.39.375c.25.25.617.55 1.101.898.485.35 1.02.693 1.61 1.031a8.724 8.724 0 002.053.828c.781.214 1.541.3 2.28.258h1.797c.364-.032.64-.146.828-.344l.062-.078c.042-.062.08-.159.117-.289.037-.13.055-.273.055-.43-.01-.447.023-.85.101-1.21.078-.359.167-.63.266-.812.1-.182.211-.336.336-.46.124-.125.213-.2.266-.227.051-.026.093-.044.124-.055.25-.083.544-.002.883.243.338.244.656.547.953.906.297.36.653.762 1.07 1.21.416.448.78.78 1.093 1l.312.187c.209.125.48.24.813.344.332.104.624.13.874.078l3.999-.062c.395 0 .703-.066.921-.196.219-.13.349-.273.39-.43a1.21 1.21 0 00.009-.53 1.96 1.96 0 00-.11-.414z" fill="#fff"/></g><defs><clipPath id="clip0"><path fill="#fff" d="M0 0h30v30H0z"/></clipPath></defs></svg>