<svg width="118" height="22" viewBox="0 0 118 22" fill="none" xmlns="http://www.w3.org/2000/svg">
<path d="M7.22006 17.304L2.37622 3.07627H2.28483C2.4143 5.18927 2.47904 7.1702 2.47904 9.01907V17.304H0V0.268008H3.84994L8.48814 13.8199H8.55668L13.332 0.268008H17.1933V17.304H14.5658V8.87924C14.5658 8.03249 14.5848 6.92938 14.6229 5.56992C14.6686 4.21045 14.7067 3.38701 14.7371 3.09958H14.6458L9.63055 17.304H7.22006Z" fill="white"/>
<path d="M39.9297 8.76271C39.9297 11.536 39.248 13.6917 37.8848 15.2299C36.5291 16.768 34.606 17.5371 32.1156 17.5371C29.5946 17.5371 27.6563 16.7758 26.3007 15.2532C24.9526 13.7228 24.2786 11.5516 24.2786 8.73941C24.2786 5.92726 24.9564 3.76766 26.3121 2.26059C27.6754 0.753531 29.6175 0 32.1384 0C34.6213 0 36.5405 0.765184 37.8962 2.29555C39.2518 3.82592 39.9297 5.98164 39.9297 8.76271ZM27.1803 8.76271C27.1803 10.8602 27.5954 12.4527 28.4256 13.5403C29.2557 14.6201 30.4857 15.16 32.1156 15.16C33.7378 15.16 34.9602 14.6239 35.7827 13.5519C36.6129 12.4799 37.0279 10.8835 37.0279 8.76271C37.0279 6.67302 36.6167 5.08828 35.7941 4.00847C34.9792 2.92867 33.7606 2.38877 32.1384 2.38877C30.5009 2.38877 29.2633 2.92867 28.4256 4.00847C27.5954 5.08828 27.1803 6.67302 27.1803 8.76271Z" fill="white"/>
<path d="M44.9586 14.9153H46.2495C47.3538 12.8566 48.2792 10.5456 49.0256 7.98199C49.772 5.41843 50.2518 2.8471 50.465 0.268008H59.0902V14.9153H61.2494V22H58.6219V17.304H47.5861V22H44.9586V14.9153ZM52.7498 2.68008C52.5823 4.4435 52.1558 6.49047 51.4703 8.82098C50.7849 11.1437 50.0042 13.1751 49.1284 14.9153H56.3599V2.68008H52.7498Z" fill="white"/>
<path d="M80.1701 0.268008L74.9035 12.3867C74.2562 13.8704 73.6621 14.9463 73.1214 15.6144C72.5806 16.2747 71.9523 16.7602 71.2364 17.071C70.5281 17.3817 69.6675 17.5371 68.6545 17.5371C67.7711 17.5371 66.9523 17.4206 66.1983 17.1875V14.6822C66.9447 14.9852 67.7254 15.1367 68.5403 15.1367C69.2334 15.1367 69.8122 14.9657 70.2768 14.6239C70.749 14.2744 71.1755 13.649 71.5563 12.7479L65.3987 0.268008H68.3461L72.4245 8.80932C72.7901 9.61723 73.0148 10.1571 73.0985 10.429H73.2128C73.2585 10.227 73.3727 9.90466 73.5555 9.46186L77.314 0.268008H80.1701Z" fill="white"/>
<path d="M98.4281 17.304H95.6978V2.65678H90.9453C90.3437 7.62853 89.86 11.0117 89.4945 12.8061C89.1365 14.6006 88.63 15.8513 87.9751 16.5583C87.3201 17.2574 86.4518 17.5953 85.3704 17.572C84.8144 17.572 84.2851 17.4749 83.7824 17.2807V14.9619C84.2165 15.1561 84.6392 15.2532 85.0505 15.2532C85.5988 15.2532 86.0253 14.9191 86.33 14.2511C86.6422 13.5752 86.9812 12.0876 87.3467 9.78814C87.7199 7.4887 88.1617 4.31532 88.6719 0.268008H98.4281V17.304Z" fill="white"/>
<path d="M118 12.1769C118 13.8471 117.448 15.1211 116.343 15.9989C115.247 16.869 113.655 17.304 111.568 17.304H106.359V0.268008H109.089V7.18962H111.454C113.571 7.18962 115.19 7.62076 116.309 8.48305C117.436 9.33757 118 10.5689 118 12.1769ZM109.089 14.9619H111.385C112.612 14.9619 113.552 14.7444 114.207 14.3093C114.87 13.8665 115.201 13.1557 115.201 12.1769C115.201 11.2602 114.885 10.5883 114.253 10.161C113.621 9.73376 112.562 9.52013 111.077 9.52013H109.089V14.9619Z" fill="white"/>
</svg>
